<?xml version="1.0" encoding="utf-8"?>
<!-- Generator: Adobe Illustrator 27.5.0, SVG Export Plug-In . SVG Version: 6.00 Build 0)  -->
<svg version="1.1" xmlns="http://www.w3.org/2000/svg" xmlns:xlink="http://www.w3.org/1999/xlink" x="0px" y="0px"
	 viewBox="0 0 499.999 500" style="enable-background:new 0 0 499.999 500;" xml:space="preserve">
<g id="BACKGROUND">
	<rect x="-0.001" style="fill:none;" width="500" height="500"/>
</g>
<g id="OBJECTS">
	<g>
		<g>
			<path style="fill:#D53D17;" d="M366.174,200.115c-4.771,4.87-9.521,9.87-13.641,14.75c-8.46,10.03-14.26,19.6-12.14,26.72
				c0.3,1.03,0.77,2.02,1.43,2.94c2.74,3.87,4.44,7.45,5.32,10.72c0.88,3.28,0.96,6.29,0.46,9.03c-1.38,7.82-7.37,13.51-12.55,17.41
				c-0.521,0.399-1.04,0.77-1.54,1.13c-8.17,5.84-14.24,12.77-10.75,21.27c0.31,0.761,0.7,1.54,1.18,2.33
				c3.62,6.02-1.109,7.5-5.75,9.52l-0.03,0.01c-2.71,1.19-5.39,2.56-6.329,5.15c-2.551,7.01-13.4,30.63-30,29.979
				c-16.57-0.64-12.75,7.65-21.051,4.48c-4.22-1.631-8.1-12.16-12.66-24.551c-0.53-1.42-1.06-2.859-1.6-4.31
				c-1.08-2.91-2.21-5.87-3.39-8.81c-2.58-6.46-5.43-12.779-8.67-18.06c-0.77-1.27-1.57-2.479-2.39-3.61
				c-9.5-13.119-6.5-18.22-3.26-21.67c1.33-1.42,2.7-2.56,3.26-3.87c0.8-1.88,0.82-7.92-0.18-15.09c-0.27-1.89-0.6-3.859-1.01-5.85
				c-1.58-7.58-4.23-15.49-8.21-20.72c-0.46-0.61-0.94-1.181-1.44-1.71c-5.51-5.851-8.05-10.59-8.82-14.32
				c-0.65-3.18-0.01-5.63,1.17-7.39c0.43-0.65,0.7-1.53,0.84-2.54c0.05-0.44,0.07-0.89,0.07-1.36c0-0.33-0.02-0.65-0.04-0.98
				c-0.02-0.38-0.05-0.77-0.13-1.15c-0.04-0.3-0.09-0.61-0.17-0.92c-0.13-0.6-0.3-1.21-0.52-1.81c-0.14-0.4-0.3-0.79-0.48-1.17
				c-0.13-0.29-0.26-0.58-0.42-0.86c-0.04-0.06-0.07-0.14-0.11-0.2c-0.12-0.24-0.25-0.49-0.41-0.72c-0.19-0.31-0.38-0.6-0.59-0.88
				c-0.19-0.29-0.4-0.56-0.65-0.83c-0.19-0.23-0.4-0.45-0.61-0.65c-0.5-0.51-1.05-0.97-1.65-1.38c-0.27-0.19-0.55-0.36-0.84-0.51
				c-0.42-0.23-0.86-0.44-1.32-0.62c-0.4-0.15-0.81-0.28-1.23-0.4c-0.42-0.11-0.86-0.19-1.32-0.24c-0.7-0.09-1.34-0.22-1.93-0.38
				c-7.4-1.97-6.19-8.46-12.12-7.28c-0.15,0.04-0.32,0.08-0.49,0.11c-0.18,0.06-0.37,0.12-0.58,0.2c-2.68,0.89-7.37,3.31-13.01,5.72
				c-1.42,0.59-2.91,1.2-4.42,1.78c-2.03,0.78-4.16,1.51-6.3,2.12c-0.54,0.16-1.08,0.31-1.63,0.46c-0.54,0.14-1.09,0.27-1.63,0.41
				c-0.55,0.15-1.11,0.26-1.64,0.36c-0.54,0.11-1.09,0.211-1.65,0.3c-0.54,0.1-1.09,0.18-1.65,0.25c-0.38,0.06-0.78,0.1-1.16,0.14
				c-0.27,0.03-0.54,0.05-0.81,0.07c-0.5,0.06-0.99,0.08-1.47,0.1c-1.02,0.06-2.03,0.06-3.03,0c-0.49-0.02-1.01-0.06-1.51-0.12
				c-0.38-0.04-0.74-0.07-1.11-0.13c-0.19-0.02-0.38-0.04-0.55-0.1c-0.31-0.03-0.62-0.09-0.9-0.17c-0.31-0.04-0.6-0.11-0.88-0.19
				c-0.08,0-0.16-0.02-0.21-0.04c-0.42-0.09-0.83-0.21-1.23-0.34c-0.36-0.12-0.74-0.23-1.11-0.37c-0.42-0.17-0.86-0.34-1.28-0.53
				c-0.48-0.21-0.96-0.44-1.42-0.69c-0.25-0.12-0.48-0.27-0.73-0.4c-0.95-0.56-1.81-1.09-2.62-1.57c-0.8-0.5-1.53-0.961-2.2-1.38
				c-0.34-0.21-0.65-0.42-0.96-0.61c-0.3-0.22-0.59-0.41-0.88-0.6c-0.27-0.17-0.53-0.36-0.78-0.53c-0.25-0.18-0.48-0.35-0.71-0.52
				c-0.69-0.48-1.26-0.94-1.76-1.38c-2.66-2.29-3.02-3.85-5.17-7.21c-0.15-0.25-0.3-0.5-0.48-0.75c-0.27-0.42-0.57-0.86-0.9-1.33
				c-1.1-1.57-2.56-3.46-4.59-5.81c-0.24-0.27-0.48-0.55-0.7-0.82c-0.64-0.75-1.25-1.49-1.81-2.21c-0.4-0.49-0.78-0.97-1.15-1.45
				c-0.36-0.48-0.72-0.94-1.07-1.42c-0.34-0.45-0.67-0.91-0.99-1.37c-0.31-0.44-0.62-0.9-0.92-1.34c-0.289-0.44-0.58-0.88-0.85-1.3
				c-0.4-0.66-0.78-1.29-1.12-1.92c-0.35-0.63-0.65-1.24-0.94-1.84c-0.11-0.2-0.2-0.41-0.3-0.61c-0.09-0.19-0.17-0.38-0.26-0.57
				c-0.17-0.39-0.32-0.79-0.46-1.17c-0.13-0.33-0.25-0.67-0.36-1.02c-0.15-0.45-0.29-0.92-0.4-1.37c-0.08-0.31-0.16-0.64-0.21-0.94
				c-0.1-0.48-0.17-0.96-0.23-1.42l-0.06-0.69c-0.13-1.82,0.08-3.54,0.59-5.2c0.21-0.67,0.48-1.34,0.79-1.99
				c0.32-0.67,0.69-1.33,1.09-1.98c0.13-0.211,0.27-0.44,0.42-0.65c1.17-1.69,1.76-3.57,1.97-5.53c0.86-7.58-3.87-16.17-1.32-18.7
				c2.85-2.87,9.84-6.76,12.13-14.43c0.289-0.88,0.48-1.82,0.62-2.8c0.59-4.46,3.67-7.12,7.2-8.67c4.04-1.82,8.63-2.18,10.68-2.18
				c2.73,0,9.7-16.289,17.3-26.05c2.41-3.12,4.9-5.57,7.33-6.61c0.61-0.26,1.23-0.43,1.84-0.51c10.53-1.28,7.33,7,13.72,7.65
				c1.76,0.18,4.83-0.9,8.58-2.37c2.12-0.84,4.48-1.82,6.97-2.78c7.5-2.88,16.19-5.62,23.27-4.05c1.38,0.28,2.7,0.76,3.93,1.41
				c0.93,0.5,1.78,0.98,2.5,1.46c1.26,0.81,2.23,1.57,2.99,2.31c5.07,4.91,0.32,8.29,5.99,12.94c0.23,0.19,0.46,0.37,0.69,0.57
				c1.53,1.26,3.12,2.61,4.75,3.91c5.68,4.56,11.92,8.31,18.16,4.46c8.311-5.11,13.4-10.2,28.08-2.54
				c14.68,7.65,31.91-6.4,33.83,17.22c0,0,0.09,0.29,0.28,0.84c0.24,0.73,0.64,1.92,1.189,3.47c1.07,3.01,2.681,7.41,4.721,12.5
				c1.67,4.12,3.6,8.72,5.75,13.4c1.13,2.45,2.319,4.92,3.56,7.35c5.4,10.7,11.75,20.89,18.33,26.26c2.52,2.06,5.08,3.41,7.62,3.81
				c3.8,0.59,7.11,0.73,10,0.61c5.21-0.16,9.09-1.06,12.1-1.3c4.351-0.36,6.86,0.62,8.86,7.07
				C395.154,171.745,380.574,185.395,366.174,200.115z"/>
			<g>
				<path style="fill:#FF8A26;" d="M321.054,92.235c-26.38-4.08-85.321-8-122.451,29.13c-27.09,27.09-58.3,39.81-80.8,45.78
					c-0.64-0.75-1.25-1.49-1.81-2.21c-0.4-0.49-0.78-0.97-1.15-1.45c-0.36-0.48-0.72-0.94-1.07-1.42c-0.34-0.45-0.67-0.91-0.99-1.37
					c-0.31-0.44-0.62-0.9-0.92-1.34c-0.289-0.44-0.58-0.88-0.85-1.3c-0.4-0.66-0.78-1.29-1.12-1.92c-0.35-0.63-0.65-1.24-0.94-1.84
					c-0.11-0.2-0.2-0.41-0.3-0.61c-0.09-0.19-0.17-0.38-0.26-0.57c-0.17-0.39-0.32-0.79-0.46-1.17c-0.13-0.33-0.25-0.67-0.36-1.02
					c-0.15-0.45-0.29-0.92-0.4-1.37c-0.08-0.31-0.16-0.64-0.21-0.94c-0.1-0.48-0.17-0.96-0.23-1.42l-0.06-0.69
					c-0.13-1.82,0.08-3.54,0.59-5.2c0.21-0.67,0.48-1.34,0.79-1.99c0.32-0.67,0.69-1.33,1.09-1.98c0.13-0.211,0.27-0.44,0.42-0.65
					c1.17-1.69,1.76-3.57,1.97-5.53c8.26,0.72,25.57-0.34,41.57-17.79c19.88-21.68,44.65-53.98,76.17-58.53
					c5.07,4.91,0.32,8.29,5.99,12.94c0.23,0.19,0.46,0.37,0.69,0.57c1.53,1.26,3.12,2.61,4.75,3.91c5.68,4.56,11.92,8.31,18.16,4.46
					c8.311-5.11,13.4-10.2,28.08-2.54c14.68,7.65,31.91-6.4,33.83,17.22C320.774,91.395,320.864,91.685,321.054,92.235z"/>
				<path style="fill:#FF8A26;" d="M366.174,200.115c-28.5-10.81-85.17-29.64-107.57-18.25c-17.53,8.91-34.73,21.78-46.19,31.12
					c-0.65-3.18-0.01-5.63,1.17-7.39c0.43-0.65,0.7-1.53,0.84-2.54c0.05-0.44,0.07-0.89,0.07-1.36c0-0.33-0.02-0.65-0.04-0.98
					c-0.02-0.38-0.05-0.77-0.13-1.15c-0.04-0.3-0.09-0.61-0.17-0.92c-0.13-0.6-0.3-1.21-0.52-1.81c-0.14-0.4-0.3-0.79-0.48-1.17
					c-0.13-0.29-0.26-0.58-0.42-0.86c-0.04-0.06-0.07-0.14-0.11-0.2c-0.12-0.24-0.25-0.49-0.41-0.72c-0.19-0.31-0.38-0.6-0.59-0.88
					c-0.19-0.29-0.4-0.56-0.65-0.83c-0.19-0.23-0.4-0.45-0.61-0.65c-0.5-0.51-1.05-0.97-1.65-1.38c-0.27-0.19-0.55-0.36-0.84-0.51
					c-0.42-0.23-0.86-0.44-1.32-0.62c-0.4-0.15-0.81-0.28-1.23-0.4c-0.42-0.11-0.86-0.19-1.32-0.24c-0.7-0.09-1.34-0.22-1.93-0.38
					c6.74-10.74,27.94-37.53,71.53-37.13c44.35,0.41,52.94,10.75,81,4.35c2.52,2.06,5.08,3.41,7.62,3.81c3.8,0.59,7.11,0.73,10,0.61
					c5.21-0.16,9.09-1.06,12.1-1.3c4.351-0.36,6.86,0.62,8.86,7.07C395.154,171.745,380.574,185.395,366.174,200.115z"/>
				<path style="fill:#FF8A26;" d="M347.604,264.275c-1.38,7.82-7.37,13.51-12.55,17.41c-0.521,0.399-1.04,0.77-1.54,1.13
					c-8.17,5.84-14.24,12.77-10.75,21.27l-76.241,22.61c-1.08-2.91-2.21-5.87-3.39-8.81c-2.58-6.46-5.43-12.779-8.67-18.06
					c-0.77-1.27-1.57-2.479-2.39-3.61c-9.5-13.119-6.5-18.22-3.26-21.67c1.33-1.42,2.7-2.56,3.26-3.87
					c0.8-1.88,0.82-7.92-0.18-15.09c5.61-1.41,13.7-4.25,25.21-9.72c30.5-14.5,47.5-16,61-11.5c7.22,2.41,14.73,5.53,22.29,7.22
					c0.3,1.03,0.77,2.02,1.43,2.94c2.74,3.87,4.44,7.45,5.32,10.72C348.024,258.525,348.104,261.535,347.604,264.275z"/>
			</g>
			<g>
				<path style="fill:#FF6803;" d="M326.964,108.205c-18.78-5.98-55-11.32-96.361,14.66c-53.96,33.89-60.59,53.46-107.51,50.91
					c-1.1-1.57-2.56-3.46-4.59-5.81c-0.24-0.27-0.48-0.55-0.7-0.82c-0.64-0.75-1.25-1.49-1.81-2.21c-0.4-0.49-0.78-0.97-1.15-1.45
					c-0.36-0.48-0.72-0.94-1.07-1.42c-0.34-0.45-0.67-0.91-0.99-1.37c-0.31-0.44-0.62-0.9-0.92-1.34c-0.289-0.44-0.58-0.88-0.85-1.3
					c-0.4-0.66-0.78-1.29-1.12-1.92c-0.35-0.63-0.65-1.24-0.94-1.84c-0.11-0.2-0.2-0.41-0.3-0.61c16.16-0.57,43.63-4.79,60.45-25.32
					c19-23.18,38.87-48.38,66.85-60.02c1.53,1.26,3.12,2.61,4.75,3.91c5.68,4.56,11.92,8.31,18.16,4.46
					c8.311-5.11,13.4-10.2,28.08-2.54c14.68,7.65,31.91-6.4,33.83,17.22c0,0,0.09,0.29,0.28,0.84c0.24,0.73,0.64,1.92,1.189,3.47
					C323.314,98.715,324.924,103.115,326.964,108.205z"/>
				<path style="fill:#FF6803;" d="M366.174,200.115c-4.771,4.87-9.521,9.87-13.641,14.75c-17.029-11.93-83.859-52.13-129.86,14.15
					c-0.46-0.61-0.94-1.181-1.44-1.71c-5.51-5.851-8.05-10.59-8.82-14.32c-0.65-3.18-0.01-5.63,1.17-7.39
					c0.43-0.65,0.7-1.53,0.84-2.54c0.05-0.44,0.07-0.89,0.07-1.36c0-0.33-0.02-0.65-0.04-0.98c-0.02-0.38-0.05-0.77-0.13-1.15
					c-0.04-0.3-0.09-0.61-0.17-0.92c-0.13-0.6-0.3-1.21-0.52-1.81c11.61-10.01,35.16-27.03,59.971-25.97
					c32.89,1.41,72.83,15.62,110.72-12.53c4.351-0.36,6.86,0.62,8.86,7.07C395.154,171.745,380.574,185.395,366.174,200.115z"/>
				<path style="fill:#FF6803;" d="M347.604,264.275c-1.38,7.82-7.37,13.51-12.55,17.41c-0.521,0.399-1.04,0.77-1.54,1.13
					c-8.17,5.84-14.24,12.77-10.75,21.27c0.31,0.761,0.7,1.54,1.18,2.33c3.62,6.02-1.109,7.5-5.75,9.52l-0.03,0.01l-70.04,15.06
					c-0.53-1.42-1.06-2.859-1.6-4.31c-1.08-2.91-2.21-5.87-3.39-8.81c-2.58-6.46-5.43-12.779-8.67-18.06
					c-0.77-1.27-1.57-2.479-2.39-3.61c-9.5-13.119-6.5-18.22-3.26-21.67c7.73,0.67,18.99-0.38,32.291-7.68c25.5-14,34.5-20,52.5-15
					C324.864,254.995,334.364,263.205,347.604,264.275z"/>
			</g>
		</g>
		<g>
			<path style="fill:#FF6803;" d="M385.114,282.475c-2.81,7.319-6.67,14.31-9.51,16.97c-0.09,0.1-0.19,0.19-0.28,0.27
				c-2.529,2.16-3.92,5.761-5.239,9.36c-2.23,5.93-4.271,11.85-11.03,11.06c-10.86-1.279-1.91-16.92,0-23.619
				c1.88-6.591-0.87-16.25,2.979-18.381c0.061-0.039,0.12-0.069,0.19-0.1c2.439-1.14,4.75-0.95,7.11-2.12
				c1.64-0.84,3.31-2.37,5.029-5.55c0.17-0.32,0.36-0.64,0.561-0.95c4.149-6.85,10.279-8.62,10.279-8.62
				C390.874,261.525,389.004,272.315,385.114,282.475z"/>
			<g>
				<defs>
					<path id="SVGID_1_" d="M385.114,282.475c-2.81,7.319-6.67,14.31-9.51,16.97c-0.09,0.1-0.19,0.19-0.28,0.27
						c-2.529,2.16-3.92,5.761-5.239,9.36c-2.23,5.93-4.271,11.85-11.03,11.06c-10.86-1.279-1.91-16.92,0-23.619
						c1.88-6.591-0.87-16.25,2.979-18.381c0.061-0.039,0.12-0.069,0.19-0.1c2.439-1.14,4.75-0.95,7.11-2.12
						c1.64-0.84,3.31-2.37,5.029-5.55c0.17-0.32,0.36-0.64,0.561-0.95c4.149-6.85,10.279-8.62,10.279-8.62
						C390.874,261.525,389.004,272.315,385.114,282.475z"/>
				</defs>
				<clipPath id="SVGID_00000076598215711341451360000006921361239451313823_">
					<use xlink:href="#SVGID_1_"  style="overflow:visible;"/>
				</clipPath>
				<path style="clip-path:url(#SVGID_00000076598215711341451360000006921361239451313823_);fill:#330402;" d="M386.351,282.967
					c-3.12,8.129-7.407,15.893-10.561,18.847c-0.1,0.11-0.211,0.211-0.311,0.3c-2.81,2.399-4.354,6.397-5.818,10.396
					c-2.478,6.586-4.743,13.16-12.251,12.283c-12.063-1.421-2.122-18.791,0-26.231c2.088-7.32-0.967-18.048,3.309-20.414
					C367.494,277.703,377.167,278.248,386.351,282.967z"/>
			</g>
		</g>
		<circle style="fill:#F1B900;" cx="231.027" cy="106.055" r="19.333"/>
		<g>
			<g>
				<path style="fill:#330402;" d="M258.354,159.615c0,0,7,15,0.25,43.5c-6.75,28.5,1.75,38.75,1.75,38.75s-6.5,18-4.75,24.25
					c1.75,6.25,6,24.75,9,26.5s-3.5-25.75-3.5-25.75l4.5-12.5c0,0,7,37.5,9.25,38.5s-1-44.75-1-44.75s4.75-1,8.5-2.75
					s10,1,12.75,1.25c0,0,0,9.75,2.5,14.25s-0.75,31.5,1.25,33.25s4.25-21,6-30.75c0,0,4.5,4.75,4.5,8.75s-1.5,21,1.25,20.75
					s2.75-25.5,2.25-27.5s-6-5.5-6-9s7-22-2.25-30.25s-27.5-2.75-29-16.5s-0.75-28.5-5.5-45s-4.75-20.25-11.5-19.75
					c-6.75,0.5-7.264,8.53-10.25,11.25c-8.385,7.636,2.5,8,4.75,5.75C255.354,159.615,258.354,159.615,258.354,159.615z"/>
			</g>
			<g>
				<g>
					<path style="fill:#330402;" d="M305.599,232.603c1.174,0.869,2.508,1.559,3.847,2.131c2.628,1.123,5.552,1.781,8.391,1.137
						c3.084-0.699,5.524-3.007,6.718-5.885c1.004-2.419,1.148-5.145,0.859-7.724c-0.175-1.567-0.452-3.168-0.971-4.663
						c-0.42-1.208-2.353-0.689-1.929,0.532c1.079,3.104,1.467,6.734,0.587,9.949c-0.681,2.486-2.387,4.727-4.88,5.601
						c-2.447,0.858-5.081,0.368-7.437-0.544c-1.46-0.565-2.913-1.327-4.175-2.26c-0.434-0.322-1.116-0.072-1.368,0.359
						C304.943,231.744,305.164,232.281,305.599,232.603L305.599,232.603z"/>
				</g>
			</g>
			<path style="fill:#330402;" d="M324.104,220.615c0,0-5.625,1-5.625-7s3.5-11.125,3.5-11.125s-0.75,4.25,1.5,6.625
				S328.354,217.865,324.104,220.615z"/>
			<path style="fill:#330402;" d="M255.479,146.99c0,0-1.125-2.5-2.875-2.625c-1.75-0.125-2.625-1.625-2.625-1.625
				s-2,6.25,3.625,8.25L255.479,146.99z"/>
			<path style="fill:#330402;" d="M261.854,146.615c0,0,4.375-7.125,6.5-8c0,0,2.875,8.75-5.125,10.75L261.854,146.615z"/>
			<g>
				<g>
					<path style="fill:#330402;" d="M257.979,147.24c0-2.665,0-5.33,0-7.994c0-0.377,0-0.754,0-1.131c0-1.287-2-1.289-2,0
						c0,2.665,0,5.33,0,7.994c0,0.377,0,0.754,0,1.131C255.979,148.527,257.979,148.529,257.979,147.24L257.979,147.24z"/>
				</g>
			</g>
			<g>
				<g>
					<path style="fill:#330402;" d="M261.318,147.256c0.656-2.918,1.313-5.835,1.969-8.753c0.094-0.416,0.187-0.831,0.281-1.247
						c0.282-1.253-1.646-1.789-1.929-0.532c-0.656,2.918-1.313,5.835-1.969,8.753c-0.094,0.416-0.187,0.831-0.281,1.247
						C259.108,147.977,261.035,148.513,261.318,147.256L261.318,147.256z"/>
				</g>
			</g>
			<circle style="fill:#330402;" cx="256.542" cy="137.302" r="1.813"/>
			<circle style="fill:#330402;" cx="262.917" cy="136.552" r="1.688"/>
		</g>
		<g>
			<defs>
				<path id="SVGID_00000126283849999262122970000008268016364848559800_" d="M366.174,200.115c-4.771,4.87-9.521,9.87-13.641,14.75
					c-8.46,10.03-14.26,19.6-12.14,26.72c0.3,1.03,0.77,2.02,1.43,2.94c2.74,3.87,4.44,7.45,5.32,10.72
					c0.88,3.28,0.96,6.29,0.46,9.03c-1.38,7.82-7.37,13.51-12.55,17.41c-0.521,0.399-1.04,0.77-1.54,1.13
					c-8.17,5.84-14.24,12.77-10.75,21.27c0.31,0.761,0.7,1.54,1.18,2.33c3.62,6.02-1.109,7.5-5.75,9.52l-0.03,0.01
					c-2.71,1.19-5.39,2.56-6.329,5.15c-2.551,7.01-13.4,30.63-30,29.979c-16.57-0.64-12.75,7.65-21.051,4.48
					c-4.22-1.631-8.1-12.16-12.66-24.551c-0.53-1.42-1.06-2.859-1.6-4.31c-1.08-2.91-2.21-5.87-3.39-8.81
					c-2.58-6.46-5.43-12.779-8.67-18.06c-0.77-1.27-1.57-2.479-2.39-3.61c-9.5-13.119-6.5-18.22-3.26-21.67
					c1.33-1.42,2.7-2.56,3.26-3.87c0.8-1.88,0.82-7.92-0.18-15.09c-0.27-1.89-0.6-3.859-1.01-5.85c-1.58-7.58-4.23-15.49-8.21-20.72
					c-0.46-0.61-0.94-1.181-1.44-1.71c-5.51-5.851-8.05-10.59-8.82-14.32c-0.65-3.18-0.01-5.63,1.17-7.39
					c0.43-0.65,0.7-1.53,0.84-2.54c0.05-0.44,0.07-0.89,0.07-1.36c0-0.33-0.02-0.65-0.04-0.98c-0.02-0.38-0.05-0.77-0.13-1.15
					c-0.04-0.3-0.09-0.61-0.17-0.92c-0.13-0.6-0.3-1.21-0.52-1.81c-0.14-0.4-0.3-0.79-0.48-1.17c-0.13-0.29-0.26-0.58-0.42-0.86
					c-0.04-0.06-0.07-0.14-0.11-0.2c-0.12-0.24-0.25-0.49-0.41-0.72c-0.19-0.31-0.38-0.6-0.59-0.88c-0.19-0.29-0.4-0.56-0.65-0.83
					c-0.19-0.23-0.4-0.45-0.61-0.65c-0.5-0.51-1.05-0.97-1.65-1.38c-0.27-0.19-0.55-0.36-0.84-0.51c-0.42-0.23-0.86-0.44-1.32-0.62
					c-0.4-0.15-0.81-0.28-1.23-0.4c-0.42-0.11-0.86-0.19-1.32-0.24c-0.7-0.09-1.34-0.22-1.93-0.38c-7.4-1.97-6.19-8.46-12.12-7.28
					c-0.15,0.04-0.32,0.08-0.49,0.11c-0.18,0.06-0.37,0.12-0.58,0.2c-2.68,0.89-7.37,3.31-13.01,5.72c-1.42,0.59-2.91,1.2-4.42,1.78
					c-2.03,0.78-4.16,1.51-6.3,2.12c-0.54,0.16-1.08,0.31-1.63,0.46c-0.54,0.14-1.09,0.27-1.63,0.41c-0.55,0.15-1.11,0.26-1.64,0.36
					c-0.54,0.11-1.09,0.211-1.65,0.3c-0.54,0.1-1.09,0.18-1.65,0.25c-0.38,0.06-0.78,0.1-1.16,0.14c-0.27,0.03-0.54,0.05-0.81,0.07
					c-0.5,0.06-0.99,0.08-1.47,0.1c-1.02,0.06-2.03,0.06-3.03,0c-0.49-0.02-1.01-0.06-1.51-0.12c-0.38-0.04-0.74-0.07-1.11-0.13
					c-0.19-0.02-0.38-0.04-0.55-0.1c-0.31-0.03-0.62-0.09-0.9-0.17c-0.31-0.04-0.6-0.11-0.88-0.19c-0.08,0-0.16-0.02-0.21-0.04
					c-0.42-0.09-0.83-0.21-1.23-0.34c-0.36-0.12-0.74-0.23-1.11-0.37c-0.42-0.17-0.86-0.34-1.28-0.53
					c-0.48-0.21-0.96-0.44-1.42-0.69c-0.25-0.12-0.48-0.27-0.73-0.4c-0.95-0.56-1.81-1.09-2.62-1.57c-0.8-0.5-1.53-0.961-2.2-1.38
					c-0.34-0.21-0.65-0.42-0.96-0.61c-0.3-0.22-0.59-0.41-0.88-0.6c-0.27-0.17-0.53-0.36-0.78-0.53c-0.25-0.18-0.48-0.35-0.71-0.52
					c-0.69-0.48-1.26-0.94-1.76-1.38c-2.66-2.29-3.02-3.85-5.17-7.21c-0.15-0.25-0.3-0.5-0.48-0.75c-0.27-0.42-0.57-0.86-0.9-1.33
					c-1.1-1.57-2.56-3.46-4.59-5.81c-0.24-0.27-0.48-0.55-0.7-0.82c-0.64-0.75-1.25-1.49-1.81-2.21c-0.4-0.49-0.78-0.97-1.15-1.45
					c-0.36-0.48-0.72-0.94-1.07-1.42c-0.34-0.45-0.67-0.91-0.99-1.37c-0.31-0.44-0.62-0.9-0.92-1.34c-0.289-0.44-0.58-0.88-0.85-1.3
					c-0.4-0.66-0.78-1.29-1.12-1.92c-0.35-0.63-0.65-1.24-0.94-1.84c-0.11-0.2-0.2-0.41-0.3-0.61c-0.09-0.19-0.17-0.38-0.26-0.57
					c-0.17-0.39-0.32-0.79-0.46-1.17c-0.13-0.33-0.25-0.67-0.36-1.02c-0.15-0.45-0.29-0.92-0.4-1.37c-0.08-0.31-0.16-0.64-0.21-0.94
					c-0.1-0.48-0.17-0.96-0.23-1.42l-0.06-0.69c-0.13-1.82,0.08-3.54,0.59-5.2c0.21-0.67,0.48-1.34,0.79-1.99
					c0.32-0.67,0.69-1.33,1.09-1.98c0.13-0.211,0.27-0.44,0.42-0.65c1.17-1.69,1.76-3.57,1.97-5.53c0.86-7.58-3.87-16.17-1.32-18.7
					c2.85-2.87,9.84-6.76,12.13-14.43c0.289-0.88,0.48-1.82,0.62-2.8c0.59-4.46,3.67-7.12,7.2-8.67c4.04-1.82,8.63-2.18,10.68-2.18
					c2.73,0,9.7-16.289,17.3-26.05c2.41-3.12,4.9-5.57,7.33-6.61c0.61-0.26,1.23-0.43,1.84-0.51c10.53-1.28,7.33,7,13.72,7.65
					c1.76,0.18,4.83-0.9,8.58-2.37c2.12-0.84,4.48-1.82,6.97-2.78c7.5-2.88,16.19-5.62,23.27-4.05c1.38,0.28,2.7,0.76,3.93,1.41
					c0.93,0.5,1.78,0.98,2.5,1.46c1.26,0.81,2.23,1.57,2.99,2.31c5.07,4.91,0.32,8.29,5.99,12.94c0.23,0.19,0.46,0.37,0.69,0.57
					c1.53,1.26,3.12,2.61,4.75,3.91c5.68,4.56,11.92,8.31,18.16,4.46c8.311-5.11,13.4-10.2,28.08-2.54
					c14.68,7.65,31.91-6.4,33.83,17.22c0,0,0.09,0.29,0.28,0.84c0.24,0.73,0.64,1.92,1.189,3.47c1.07,3.01,2.681,7.41,4.721,12.5
					c1.67,4.12,3.6,8.72,5.75,13.4c1.13,2.45,2.319,4.92,3.56,7.35c5.4,10.7,11.75,20.89,18.33,26.26c2.52,2.06,5.08,3.41,7.62,3.81
					c3.8,0.59,7.11,0.73,10,0.61c5.21-0.16,9.09-1.06,12.1-1.3c4.351-0.36,6.86,0.62,8.86,7.07
					C395.154,171.745,380.574,185.395,366.174,200.115z"/>
			</defs>
			<clipPath id="SVGID_00000072274651472049643900000001674857910919591835_">
				<use xlink:href="#SVGID_00000126283849999262122970000008268016364848559800_"  style="overflow:visible;"/>
			</clipPath>
			<path style="clip-path:url(#SVGID_00000072274651472049643900000001674857910919591835_);fill:#330402;" d="M336.628,281.685
				c-0.537,0.412-1.073,0.794-1.589,1.166c-8.434,6.028-14.699,13.182-11.096,21.955c0.319,0.785,0.722,1.59,1.217,2.405
				c3.736,6.215-1.145,7.741-5.936,9.827l-0.031,0.01c-2.797,1.228-5.564,2.642-6.533,5.316
				c-2.632,7.236-13.831,31.616-30.966,30.945c-17.105-0.661-13.16,7.897-21.729,4.624c-4.355-1.684-8.361-12.551-13.068-25.341
				c-0.547-1.466-1.094-2.952-1.652-4.448c-1.114-3.005-2.281-6.059-3.499-9.095c-2.663-6.668-5.605-13.191-8.949-18.641
				c11.076-5.193,30.884-12.326,55.369-11.83C313.413,289.096,327.163,286.215,336.628,281.685z"/>
			<g style="clip-path:url(#SVGID_00000072274651472049643900000001674857910919591835_);">
				<path style="fill:#330402;" d="M193.883,162.935c-2.45,8.7-13.94,12.3-21.62,14.41c-6.01,1.63-12.2,2.85-18.4,3.54
					c0.22,4.53-0.21,9.02-1.15,13.55c-0.39,1.89-3.28,1.09-2.89-0.8c0.8-3.83,1.21-7.7,1.11-11.56
					c-12.81-1.26-25.83-6.27-36.59-13.25c-1.61-1.05-0.11-3.64,1.52-2.59c4.211,2.74,8.79,5.18,13.57,7.18
					c2.65-5.23,2.92-11.82,1.72-17.48c-0.4-1.89,2.49-2.69,2.9-0.8c1.33,6.31,1.05,13.53-1.83,19.4c6.02,2.29,12.3,3.88,18.53,4.52
					c-0.21-2.32-0.62-4.64-1.25-6.94c-1.43-5.24-3.41-9.92-3.76-15.41c-0.45-7,0.08-14.16,1.25-21.07c0.32-1.91,3.21-1.1,2.89,0.8
					c-1.22,7.21-1.82,14.91-0.97,22.19c0.69,5.86,3.48,11.14,4.41,16.97c0.12,0.77,0.23,1.54,0.31,2.31
					c2.84-0.31,5.68-0.74,8.5-1.28c2.99-5.87,2.34-13.9,1.19-20.19c-0.35-1.9,2.55-2.7,2.89-0.8c1.17,6.35,1.78,13.97-0.51,20.25
					c1.44-0.32,2.87-0.67,4.29-1.04c4.53-1.19,9.12-2.61,13.25-4.86c3.23-1.77,6.69-4.12,7.75-7.85
					C191.514,160.275,194.414,161.065,193.883,162.935z"/>
				<path style="fill:#330402;" d="M105.104,146.99c0,0,3.125-9,11.5-4c0,0,1.625-6.25,8.25-8c0,0-1.25-5.875,3.5-8
					c0,0-5.25-8,3-12.625s12.125,1.625,12.125,1.625s3.5-8.5,13.25-5.75s7.25,13.5,7.25,13.5s9.25-2.5,12.5,5
					c3.25,7.5-3.875,11.75-3.875,11.75s3.5,0.875,5.125,2.625c0,0,1.125-10.25,10.5-8.75s8.375,8.625,8.375,8.625
					s14.5-6.125,19.25,1.625s-3.125,10.125-7.875,11c0,0,4.5,6.5-1.375,10.625s-19.25-3.375-19.25-3.375s-9,12.375-21.875-2.375
					c0,0-7,2.875-10.75-3.25s1.375-13.375,1.375-13.375s-5.25,0.75-8.25-4.125c0,0-2.875,4.75-11.625,3.5c0,0-0.5,2-2.25,3.875
					c0,0,8.875,1.375,8,7.75s-8.5,7.625-12.625,5.25c0,0-4.75,9.75-16.875,3.25L105.104,146.99z"/>
			</g>
			<g style="clip-path:url(#SVGID_00000072274651472049643900000001674857910919591835_);">
				<path style="fill:#330402;" d="M382.144,176.124c-5.47,10.72-16.9,18.28-28.92,19.49c1.689,9.38,3.439,18.71,1.66,28.32
					c-0.351,1.899-3.24,1.09-2.891-0.801c1.86-10.029-0.489-19.709-2.22-29.479c-10.97,0.54-22.229-1.77-30.9-8.85
					c-3.5-2.86-7.01-6.59-8.81-10.81c-0.76-1.76,1.83-3.29,2.58-1.51c1.6,3.74,4.62,7.09,7.7,9.66c2.479,2.08,5.18,3.72,8.04,4.99
					c0.06-0.03,0.13-0.06,0.2-0.09c5.689-2.05,7.989-9.25,8.27-14.8c0.1-1.93,3.1-1.94,3,0c-0.31,6.03-2.59,12.9-7.75,16.31
					c5.47,1.78,11.34,2.37,17.17,2.13c-0.39-2.43-0.71-4.88-0.89-7.34c-0.641-8.75,0.1-17.69,1.27-26.38
					c0.25-1.84,2.95-1.15,2.92,0.6c0,0.01,0,0.01,0,0.02c0,0.01,0,0.03-0.01,0.05v0.06c-0.04,0.27-0.1,0.78-0.12,0.89
					c-0.09,0.77-0.18,1.539-0.26,2.3c-0.25,2.37-0.48,4.73-0.64,7.11c-0.311,4.43-0.54,8.93-0.311,13.38
					c0.851-0.26,1.66-0.59,2.44-1.01c3.55-1.93,6.18-4.82,8.26-8.26c1-1.65,3.59-0.14,2.59,1.52c-2.86,4.72-7.42,9.51-13.03,10.84
					c0.021,0.3,0.051,0.61,0.091,0.91c0.3,2.441,0.689,4.87,1.119,7.29c4.9-0.43,9.681-2.05,13.931-4.56
					c-2.62-3.51-3.19-8.45-2.65-12.62c0.24-1.89,3.24-1.91,3,0c-0.46,3.57-0.2,8.01,2.18,10.98c4.36-3.09,8-7.17,10.4-11.86
					C380.434,172.885,383.024,174.405,382.144,176.124z"/>
				<path style="fill:#330402;" d="M346.271,136.865c0,0-12.167-2.167-11.667,10.333c0,0-11.667,3.333-9.667,11
					c0,0-12.666-1.5-15.166,7c0,0-11.001-1.499-10.834,6.833c0,0,0.667,9.167,14.167,4.5c0,0,9.667,6.5,16.167-1.5
					c0,0,5.166,5.833,11.166,1s1.334-10.833,1.334-10.833s5.334,0.667,8.5-2.667c0,0,2.666,5,9.166,4c0,0-3.334,7.333,1.5,10.5
					c4.834,3.167,11.668,2,14.834-1c0,0,2.166,7,15.833,0.5c0,0,9.999-12.5,10.333-13.333c0.334-0.833-3.666-23.667-3.666-23.667
					l-32.334-12.167L346.271,136.865z"/>
			</g>
		</g>
	</g>
</g>
</svg>
